<?xml version="1.0" encoding="us-ascii" standalone="no"?><svg xmlns="http://www.w3.org/2000/svg" xmlns:xlink="http://www.w3.org/1999/xlink" contentStyleType="text/css" height="855.9px" preserveAspectRatio="none" style="width:1607px;height:855px;background:#FFFFFF;" version="1.1" viewBox="0 0 1607 855" width="1607.4px" zoomAndPan="magnify"><defs/><g><!--class Gate--><g id="elem_Gate"><rect codeLine="1" fill="#F1F1F1" height="77.5223" id="Gate" rx="2.25" ry="2.25" style="stroke:#181818;stroke-width:0.45;" width="125.1" x="488.7" y="380.772"/><ellipse cx="534.375" cy="395.172" fill="#A9DCDF" rx="9.9" ry="9.9" style="stroke:#181818;stroke-width:0.9;"/><path d="M537.3844,399.897 L536.0625,396.522 L532.0688,396.522 L530.775,399.897 L528.8625,399.897 L533.3203,388.4501 L534.8953,388.4501 L539.325,399.897 L537.3844,399.897 Z M534.375,391.8392 Q534.3328,391.6986 534.2203,391.3751 Q534.1078,391.0517 534.0094,390.7142 Q533.9109,390.3626 534.0938,390.3064 Q534.2344,390.4751 534.15,390.7986 Q534.0656,391.1079 533.9813,391.3751 Q533.8969,391.6283 533.8266,391.8392 L532.7156,394.8204 L535.4859,394.8204 L534.375,391.8392 Z " fill="#000000"/><text fill="#000000" font-family="sans-serif" font-size="12.6" font-style="italic" lengthAdjust="spacing" textLength="26.1" x="552.825" y="400.0608">Gate</text><line style="stroke:#181818;stroke-width:0.45;" x1="489.6" x2="612.9" y1="409.572" y2="409.572"/><line style="stroke:#181818;stroke-width:0.45;" x1="489.6" x2="612.9" y1="416.772" y2="416.772"/><ellipse cx="498.6" cy="430.3026" fill="#84BE84" rx="2.7" ry="2.7" style="stroke:#038048;stroke-width:0.9;"/><text fill="#000000" font-family="sans-serif" font-size="12.6" lengthAdjust="spacing" textLength="101.7" x="506.7" y="433.8413">openGate() : void</text><ellipse cx="498.6" cy="447.4637" fill="#84BE84" rx="2.7" ry="2.7" style="stroke:#038048;stroke-width:0.9;"/><text fill="#000000" font-family="sans-serif" font-size="12.6" lengthAdjust="spacing" textLength="101.7" x="506.7" y="451.0025">closeGate() : void</text></g><!--class EntranceGate--><g id="elem_EntranceGate"><rect codeLine="6" fill="#F1F1F1" height="43.2" id="EntranceGate" rx="2.25" ry="2.25" style="stroke:#181818;stroke-width:0.45;" width="110.7" x="369.9" y="606.618"/><ellipse cx="383.4" cy="621.018" fill="#ADD1B2" rx="9.9" ry="9.9" style="stroke:#181818;stroke-width:0.9;"/><path d="M383.4984,616.9961 Q382.6688,616.9961 382.0078,617.2774 Q381.3609,617.5586 380.9109,618.093 Q380.4609,618.6133 380.2078,619.4008 Q379.9688,620.1883 379.9688,621.1727 Q379.9688,622.4664 380.3625,623.4086 Q380.7703,624.3508 381.5297,624.843 Q382.3031,625.3352 383.4844,625.3352 Q384.1875,625.3352 384.8063,625.2227 Q385.4391,625.0961 386.3391,624.8149 L386.3391,626.5024 Q385.5656,626.7977 384.8766,626.9102 Q384.2016,627.0227 383.2875,627.0227 Q381.5578,627.0227 380.3766,626.3055 Q379.2094,625.5743 378.6188,624.2524 Q378.0281,622.9164 378.0281,621.1446 Q378.0281,619.8649 378.3797,618.8102 Q378.7453,617.7414 379.4484,616.9539 Q380.1516,616.1664 381.1781,615.7446 Q382.2047,615.3086 383.5266,615.3086 Q384.3844,615.3086 385.1859,615.4914 Q386.0016,615.6602 386.8453,616.0821 L386.1,617.6852 Q385.3969,617.3477 384.8063,617.1789 Q384.2156,616.9961 383.4984,616.9961 Z " fill="#000000"/><text fill="#000000" font-family="sans-serif" font-size="12.6" lengthAdjust="spacing" textLength="81.9" x="396" y="625.9068">EntranceGate</text><line style="stroke:#181818;stroke-width:0.45;" x1="370.8" x2="479.7" y1="635.418" y2="635.418"/><line style="stroke:#181818;stroke-width:0.45;" x1="370.8" x2="479.7" y1="642.618" y2="642.618"/></g><!--class ExitGate--><g id="elem_ExitGate"><rect codeLine="9" fill="#F1F1F1" height="43.2" id="ExitGate" rx="2.25" ry="2.25" style="stroke:#181818;stroke-width:0.45;" width="78.3" x="512.1" y="606.618"/><ellipse cx="525.6" cy="621.018" fill="#ADD1B2" rx="9.9" ry="9.9" style="stroke:#181818;stroke-width:0.9;"/><path d="M525.6984,616.9961 Q524.8688,616.9961 524.2078,617.2774 Q523.5609,617.5586 523.1109,618.093 Q522.6609,618.6133 522.4078,619.4008 Q522.1688,620.1883 522.1688,621.1727 Q522.1688,622.4664 522.5625,623.4086 Q522.9703,624.3508 523.7297,624.843 Q524.5031,625.3352 525.6844,625.3352 Q526.3875,625.3352 527.0063,625.2227 Q527.6391,625.0961 528.5391,624.8149 L528.5391,626.5024 Q527.7656,626.7977 527.0766,626.9102 Q526.4016,627.0227 525.4875,627.0227 Q523.7578,627.0227 522.5766,626.3055 Q521.4094,625.5743 520.8188,624.2524 Q520.2281,622.9164 520.2281,621.1446 Q520.2281,619.8649 520.5797,618.8102 Q520.9453,617.7414 521.6484,616.9539 Q522.3516,616.1664 523.3781,615.7446 Q524.4047,615.3086 525.7266,615.3086 Q526.5844,615.3086 527.3859,615.4914 Q528.2016,615.6602 529.0453,616.0821 L528.3,617.6852 Q527.5969,617.3477 527.0063,617.1789 Q526.4156,616.9961 525.6984,616.9961 Z " fill="#000000"/><text fill="#000000" font-family="sans-serif" font-size="12.6" lengthAdjust="spacing" textLength="49.5" x="538.2" y="625.9068">ExitGate</text><line style="stroke:#181818;stroke-width:0.45;" x1="513" x2="589.5" y1="635.418" y2="635.418"/><line style="stroke:#181818;stroke-width:0.45;" x1="513" x2="589.5" y1="642.618" y2="642.618"/></g><!--class ParkingGarage--><g id="elem_ParkingGarage"><rect codeLine="12" fill="#F1F1F1" height="129.0056" id="ParkingGarage" rx="2.25" ry="2.25" style="stroke:#181818;stroke-width:0.45;" width="210.6" x="864.45" y="154.926"/><ellipse cx="920.925" cy="169.326" fill="#ADD1B2" rx="9.9" ry="9.9" style="stroke:#181818;stroke-width:0.9;"/><path d="M921.0234,165.3041 Q920.1938,165.3041 919.5328,165.5854 Q918.8859,165.8666 918.4359,166.401 Q917.9859,166.9213 917.7328,167.7088 Q917.4938,168.4963 917.4938,169.4807 Q917.4938,170.7744 917.8875,171.7166 Q918.2953,172.6588 919.0547,173.151 Q919.8281,173.6432 921.0094,173.6432 Q921.7125,173.6432 922.3313,173.5307 Q922.9641,173.4041 923.8641,173.1229 L923.8641,174.8104 Q923.0906,175.1057 922.4016,175.2182 Q921.7266,175.3307 920.8125,175.3307 Q919.0828,175.3307 917.9016,174.6135 Q916.7344,173.8823 916.1438,172.5604 Q915.5531,171.2244 915.5531,169.4526 Q915.5531,168.1729 915.9047,167.1182 Q916.2703,166.0494 916.9734,165.2619 Q917.6766,164.4744 918.7031,164.0526 Q919.7297,163.6166 921.0516,163.6166 Q921.9094,163.6166 922.7109,163.7994 Q923.5266,163.9682 924.3703,164.3901 L923.625,165.9932 Q922.9219,165.6557 922.3313,165.4869 Q921.7406,165.3041 921.0234,165.3041 Z " fill="#000000"/><text fill="#000000" font-family="sans-serif" font-size="12.6" lengthAdjust="spacing" textLength="90" x="939.375" y="174.2148">ParkingGarage</text><line style="stroke:#181818;stroke-width:0.45;" x1="865.35" x2="1074.15" y1="183.726" y2="183.726"/><rect fill="none" height="5.4" style="stroke:#C82930;stroke-width:0.9;" width="5.4" x="871.65" y="194.5566"/><text fill="#000000" font-family="sans-serif" font-size="12.6" lengthAdjust="spacing" textLength="87.3" x="882.45" y="200.7953">totalSpots : int</text><rect fill="none" height="5.4" style="stroke:#C82930;stroke-width:0.9;" width="5.4" x="871.65" y="211.7177"/><text fill="#000000" font-family="sans-serif" font-size="12.6" lengthAdjust="spacing" textLength="114.3" x="882.45" y="217.9565">availableSpots : int</text><line style="stroke:#181818;stroke-width:0.45;" x1="865.35" x2="1074.15" y1="225.2483" y2="225.2483"/><ellipse cx="874.35" cy="238.7788" fill="#84BE84" rx="2.7" ry="2.7" style="stroke:#038048;stroke-width:0.9;"/><text fill="#000000" font-family="sans-serif" font-size="12.6" lengthAdjust="spacing" textLength="142.2" x="882.45" y="242.3176">getAvailableSpots() : int</text><ellipse cx="874.35" cy="255.9399" fill="#84BE84" rx="2.7" ry="2.7" style="stroke:#038048;stroke-width:0.9;"/><text fill="#000000" font-family="sans-serif" font-size="12.6" lengthAdjust="spacing" textLength="100.8" x="882.45" y="259.4787">parkCar() : Ticket</text><ellipse cx="874.35" cy="273.1011" fill="#84BE84" rx="2.7" ry="2.7" style="stroke:#038048;stroke-width:0.9;"/><text fill="#000000" font-family="sans-serif" font-size="12.6" lengthAdjust="spacing" textLength="187.2" x="882.45" y="276.6398">exitCar(ticket : Ticket) : boolean</text></g><!--class ParkingSpot--><g id="elem_ParkingSpot"><rect codeLine="20" fill="#F1F1F1" height="129.0056" id="ParkingSpot" rx="2.25" ry="2.25" style="stroke:#181818;stroke-width:0.45;" width="154.8" x="654.75" y="355.032"/><ellipse cx="692.145" cy="369.432" fill="#ADD1B2" rx="9.9" ry="9.9" style="stroke:#181818;stroke-width:0.9;"/><path d="M692.2434,365.4101 Q691.4137,365.4101 690.7528,365.6914 Q690.1059,365.9726 689.6559,366.507 Q689.2059,367.0273 688.9528,367.8148 Q688.7138,368.6023 688.7138,369.5867 Q688.7138,370.8804 689.1075,371.8226 Q689.5153,372.7648 690.2747,373.257 Q691.0481,373.7492 692.2294,373.7492 Q692.9325,373.7492 693.5513,373.6367 Q694.1841,373.5101 695.0841,373.2289 L695.0841,374.9164 Q694.3106,375.2117 693.6216,375.3242 Q692.9466,375.4367 692.0325,375.4367 Q690.3028,375.4367 689.1216,374.7195 Q687.9544,373.9883 687.3638,372.6664 Q686.7731,371.3304 686.7731,369.5586 Q686.7731,368.2789 687.1247,367.2242 Q687.4903,366.1554 688.1934,365.3679 Q688.8966,364.5804 689.9231,364.1586 Q690.9497,363.7226 692.2716,363.7226 Q693.1294,363.7226 693.9309,363.9054 Q694.7466,364.0742 695.5903,364.4961 L694.845,366.0992 Q694.1419,365.7617 693.5513,365.5929 Q692.9606,365.4101 692.2434,365.4101 Z " fill="#000000"/><text fill="#000000" font-family="sans-serif" font-size="12.6" lengthAdjust="spacing" textLength="72.9" x="710.055" y="374.3208">ParkingSpot</text><line style="stroke:#181818;stroke-width:0.45;" x1="655.65" x2="808.65" y1="383.832" y2="383.832"/><rect fill="none" height="5.4" style="stroke:#C82930;stroke-width:0.9;" width="5.4" x="661.95" y="394.6626"/><text fill="#000000" font-family="sans-serif" font-size="12.6" lengthAdjust="spacing" textLength="103.5" x="672.75" y="400.9013">spotNumber : int</text><rect fill="none" height="5.4" style="stroke:#C82930;stroke-width:0.9;" width="5.4" x="661.95" y="411.8237"/><text fill="#000000" font-family="sans-serif" font-size="12.6" lengthAdjust="spacing" textLength="126.9" x="672.75" y="418.0625">isOccupied : boolean</text><line style="stroke:#181818;stroke-width:0.45;" x1="655.65" x2="808.65" y1="425.3543" y2="425.3543"/><ellipse cx="664.65" cy="438.8848" fill="#84BE84" rx="2.7" ry="2.7" style="stroke:#038048;stroke-width:0.9;"/><text fill="#000000" font-family="sans-serif" font-size="12.6" lengthAdjust="spacing" textLength="112.5" x="672.75" y="442.4236">occupySpot() : void</text><ellipse cx="664.65" cy="456.0459" fill="#84BE84" rx="2.7" ry="2.7" style="stroke:#038048;stroke-width:0.9;"/><text fill="#000000" font-family="sans-serif" font-size="12.6" lengthAdjust="spacing" textLength="94.5" x="672.75" y="459.5847">freeSpot() : void</text><ellipse cx="664.65" cy="473.2071" fill="#84BE84" rx="2.7" ry="2.7" style="stroke:#038048;stroke-width:0.9;"/><text fill="#000000" font-family="sans-serif" font-size="12.6" lengthAdjust="spacing" textLength="131.4" x="672.75" y="476.7458">isAvailable() : boolean</text></g><!--class Ticket--><g id="elem_Ticket"><rect codeLine="28" fill="#F1F1F1" height="146.1668" id="Ticket" rx="2.25" ry="2.25" style="stroke:#181818;stroke-width:0.45;" width="237.6" x="622.35" y="555.138"/><ellipse cx="719.775" cy="569.538" fill="#ADD1B2" rx="9.9" ry="9.9" style="stroke:#181818;stroke-width:0.9;"/><path d="M719.8734,565.5161 Q719.0438,565.5161 718.3828,565.7974 Q717.7359,566.0786 717.2859,566.613 Q716.8359,567.1333 716.5828,567.9208 Q716.3438,568.7083 716.3438,569.6927 Q716.3438,570.9864 716.7375,571.9286 Q717.1453,572.8708 717.9047,573.363 Q718.6781,573.8552 719.8594,573.8552 Q720.5625,573.8552 721.1813,573.7427 Q721.8141,573.6161 722.7141,573.3349 L722.7141,575.0224 Q721.9406,575.3177 721.2516,575.4302 Q720.5766,575.5427 719.6625,575.5427 Q717.9328,575.5427 716.7516,574.8255 Q715.5844,574.0943 714.9938,572.7724 Q714.4031,571.4364 714.4031,569.6646 Q714.4031,568.3849 714.7547,567.3302 Q715.1203,566.2614 715.8234,565.4739 Q716.5266,564.6864 717.5531,564.2646 Q718.5797,563.8286 719.9016,563.8286 Q720.7594,563.8286 721.5609,564.0114 Q722.3766,564.1802 723.2203,564.6021 L722.475,566.2052 Q721.7719,565.8677 721.1813,565.6989 Q720.5906,565.5161 719.8734,565.5161 Z " fill="#000000"/><text fill="#000000" font-family="sans-serif" font-size="12.6" lengthAdjust="spacing" textLength="35.1" x="738.225" y="574.4268">Ticket</text><line style="stroke:#181818;stroke-width:0.45;" x1="623.25" x2="859.05" y1="583.938" y2="583.938"/><rect fill="none" height="5.4" style="stroke:#C82930;stroke-width:0.9;" width="5.4" x="629.55" y="594.7686"/><text fill="#000000" font-family="sans-serif" font-size="12.6" lengthAdjust="spacing" textLength="92.7" x="640.35" y="601.0073">ticketId : String</text><rect fill="none" height="5.4" style="stroke:#C82930;stroke-width:0.9;" width="5.4" x="629.55" y="611.9297"/><text fill="#000000" font-family="sans-serif" font-size="12.6" lengthAdjust="spacing" textLength="99.9" x="640.35" y="618.1685">issueTime : Date</text><rect fill="none" height="5.4" style="stroke:#C82930;stroke-width:0.9;" width="5.4" x="629.55" y="629.0908"/><text fill="#000000" font-family="sans-serif" font-size="12.6" lengthAdjust="spacing" textLength="86.4" x="640.35" y="635.3296">paid : boolean</text><line style="stroke:#181818;stroke-width:0.45;" x1="623.25" x2="859.05" y1="642.6214" y2="642.6214"/><ellipse cx="632.25" cy="656.1519" fill="#84BE84" rx="2.7" ry="2.7" style="stroke:#038048;stroke-width:0.9;"/><text fill="#000000" font-family="sans-serif" font-size="12.6" lengthAdjust="spacing" textLength="214.2" x="640.35" y="659.6907">getFee(currentTime : Date) : double</text><ellipse cx="632.25" cy="673.3131" fill="#84BE84" rx="2.7" ry="2.7" style="stroke:#038048;stroke-width:0.9;"/><text fill="#000000" font-family="sans-serif" font-size="12.6" lengthAdjust="spacing" textLength="188.1" x="640.35" y="676.8518">pay(amount : double) : boolean</text><ellipse cx="632.25" cy="690.4742" fill="#84BE84" rx="2.7" ry="2.7" style="stroke:#038048;stroke-width:0.9;"/><text fill="#000000" font-family="sans-serif" font-size="12.6" lengthAdjust="spacing" textLength="102.6" x="640.35" y="694.013">isPaid() : boolean</text></g><!--class Payment--><g id="elem_Payment"><rect codeLine="37" fill="#F1F1F1" height="77.5223" id="Payment" rx="2.25" ry="2.25" style="stroke:#181818;stroke-width:0.45;" width="374.4" x="24.75" y="772.398"/><ellipse cx="182.025" cy="786.798" fill="#ADD1B2" rx="9.9" ry="9.9" style="stroke:#181818;stroke-width:0.9;"/><path d="M182.1234,782.7761 Q181.2938,782.7761 180.6328,783.0574 Q179.9859,783.3386 179.5359,783.873 Q179.0859,784.3933 178.8328,785.1808 Q178.5938,785.9683 178.5938,786.9527 Q178.5938,788.2464 178.9875,789.1886 Q179.3953,790.1308 180.1547,790.623 Q180.9281,791.1152 182.1094,791.1152 Q182.8125,791.1152 183.4313,791.0027 Q184.0641,790.8761 184.9641,790.5949 L184.9641,792.2824 Q184.1906,792.5777 183.5016,792.6902 Q182.8266,792.8027 181.9125,792.8027 Q180.1828,792.8027 179.0016,792.0855 Q177.8344,791.3543 177.2438,790.0324 Q176.6531,788.6964 176.6531,786.9246 Q176.6531,785.6449 177.0047,784.5902 Q177.3703,783.5214 178.0734,782.7339 Q178.7766,781.9464 179.8031,781.5246 Q180.8297,781.0886 182.1516,781.0886 Q183.0094,781.0886 183.8109,781.2714 Q184.6266,781.4402 185.4703,781.8621 L184.725,783.4652 Q184.0219,783.1277 183.4313,782.9589 Q182.8406,782.7761 182.1234,782.7761 Z " fill="#000000"/><text fill="#000000" font-family="sans-serif" font-size="12.6" lengthAdjust="spacing" textLength="52.2" x="200.475" y="791.6868">Payment</text><line style="stroke:#181818;stroke-width:0.45;" x1="25.65" x2="398.25" y1="801.198" y2="801.198"/><rect fill="none" height="5.4" style="stroke:#C82930;stroke-width:0.9;" width="5.4" x="31.95" y="812.0286"/><text fill="#000000" font-family="sans-serif" font-size="12.6" lengthAdjust="spacing" textLength="99.9" x="42.75" y="818.2673">amount : double</text><line style="stroke:#181818;stroke-width:0.45;" x1="25.65" x2="398.25" y1="825.5591" y2="825.5591"/><ellipse cx="34.65" cy="839.0897" fill="#84BE84" rx="2.7" ry="2.7" style="stroke:#038048;stroke-width:0.9;"/><text fill="#000000" font-family="sans-serif" font-size="12.6" lengthAdjust="spacing" textLength="351" x="42.75" y="842.6285">processPayment(ticket : Ticket, amount : double) : boolean</text></g><!--class PaymentMachine--><g id="elem_PaymentMachine"><rect codeLine="42" fill="#F1F1F1" height="60.3611" id="PaymentMachine" rx="2.25" ry="2.25" style="stroke:#181818;stroke-width:0.45;" width="332.1" x="6.3" y="598.041"/><ellipse cx="116.325" cy="612.441" fill="#ADD1B2" rx="9.9" ry="9.9" style="stroke:#181818;stroke-width:0.9;"/><path d="M116.4234,608.4191 Q115.5938,608.4191 114.9328,608.7004 Q114.2859,608.9816 113.8359,609.516 Q113.3859,610.0363 113.1328,610.8238 Q112.8938,611.6113 112.8938,612.5957 Q112.8938,613.8894 113.2875,614.8316 Q113.6953,615.7738 114.4547,616.266 Q115.2281,616.7582 116.4094,616.7582 Q117.1125,616.7582 117.7313,616.6457 Q118.3641,616.5191 119.2641,616.2379 L119.2641,617.9254 Q118.4906,618.2207 117.8016,618.3332 Q117.1266,618.4457 116.2125,618.4457 Q114.4828,618.4457 113.3016,617.7285 Q112.1344,616.9973 111.5438,615.6754 Q110.9531,614.3394 110.9531,612.5676 Q110.9531,611.2879 111.3047,610.2332 Q111.6703,609.1644 112.3734,608.3769 Q113.0766,607.5894 114.1031,607.1676 Q115.1297,606.7316 116.4516,606.7316 Q117.3094,606.7316 118.1109,606.9144 Q118.9266,607.0832 119.7703,607.5051 L119.025,609.1082 Q118.3219,608.7707 117.7313,608.6019 Q117.1406,608.4191 116.4234,608.4191 Z " fill="#000000"/><text fill="#000000" font-family="sans-serif" font-size="12.6" lengthAdjust="spacing" textLength="104.4" x="134.775" y="617.3298">PaymentMachine</text><line style="stroke:#181818;stroke-width:0.45;" x1="7.2" x2="337.5" y1="626.841" y2="626.841"/><line style="stroke:#181818;stroke-width:0.45;" x1="7.2" x2="337.5" y1="634.041" y2="634.041"/><ellipse cx="16.2" cy="647.5716" fill="#84BE84" rx="2.7" ry="2.7" style="stroke:#038048;stroke-width:0.9;"/><text fill="#000000" font-family="sans-serif" font-size="12.6" lengthAdjust="spacing" textLength="308.7" x="24.3" y="651.1103">payTicket(ticket : Ticket, amount : double) : boolean</text></g><!--class Display--><g id="elem_Display"><rect codeLine="46" fill="#F1F1F1" height="77.5223" id="Display" rx="2.25" ry="2.25" style="stroke:#181818;stroke-width:0.45;" width="257.4" x="841.05" y="380.772"/><ellipse cx="943.875" cy="395.172" fill="#ADD1B2" rx="9.9" ry="9.9" style="stroke:#181818;stroke-width:0.9;"/><path d="M943.9734,391.1501 Q943.1438,391.1501 942.4828,391.4314 Q941.8359,391.7126 941.3859,392.247 Q940.9359,392.7673 940.6828,393.5548 Q940.4438,394.3423 940.4438,395.3267 Q940.4438,396.6204 940.8375,397.5626 Q941.2453,398.5048 942.0047,398.997 Q942.7781,399.4892 943.9594,399.4892 Q944.6625,399.4892 945.2813,399.3767 Q945.9141,399.2501 946.8141,398.9689 L946.8141,400.6564 Q946.0406,400.9517 945.3516,401.0642 Q944.6766,401.1767 943.7625,401.1767 Q942.0328,401.1767 940.8516,400.4595 Q939.6844,399.7283 939.0938,398.4064 Q938.5031,397.0704 938.5031,395.2986 Q938.5031,394.0189 938.8547,392.9642 Q939.2203,391.8954 939.9234,391.1079 Q940.6266,390.3204 941.6531,389.8986 Q942.6797,389.4626 944.0016,389.4626 Q944.8594,389.4626 945.6609,389.6454 Q946.4766,389.8142 947.3203,390.2361 L946.575,391.8392 Q945.8719,391.5017 945.2813,391.3329 Q944.6906,391.1501 943.9734,391.1501 Z " fill="#000000"/><text fill="#000000" font-family="sans-serif" font-size="12.6" lengthAdjust="spacing" textLength="44.1" x="962.325" y="400.0608">Display</text><line style="stroke:#181818;stroke-width:0.45;" x1="841.95" x2="1097.55" y1="409.572" y2="409.572"/><rect fill="none" height="5.4" style="stroke:#C82930;stroke-width:0.9;" width="5.4" x="848.25" y="420.4026"/><text fill="#000000" font-family="sans-serif" font-size="12.6" lengthAdjust="spacing" textLength="114.3" x="859.05" y="426.6413">availableSpots : int</text><line style="stroke:#181818;stroke-width:0.45;" x1="841.95" x2="1097.55" y1="433.9331" y2="433.9331"/><ellipse cx="850.95" cy="447.4637" fill="#84BE84" rx="2.7" ry="2.7" style="stroke:#038048;stroke-width:0.9;"/><text fill="#000000" font-family="sans-serif" font-size="12.6" lengthAdjust="spacing" textLength="234" x="859.05" y="451.0025">updateAvailableSpots(spots : int) : void</text></g><!--class UserInterface--><g id="elem_UserInterface"><rect codeLine="51" fill="#F1F1F1" height="111.8445" id="UserInterface" rx="2.25" ry="2.25" style="stroke:#181818;stroke-width:0.45;" width="471.6" x="1129.95" y="363.609"/><ellipse cx="1324.125" cy="378.009" fill="#B4A7E5" rx="9.9" ry="9.9" style="stroke:#181818;stroke-width:0.9;"/><path d="M1326.0094,383.859 L1321.5938,383.859 L1321.5938,382.6215 L1322.8734,382.3403 L1322.8734,373.9871 L1321.5938,373.6778 L1321.5938,372.4543 L1326.0094,372.4543 L1326.0094,373.6778 L1324.7297,373.9871 L1324.7297,382.3403 L1326.0094,382.6215 L1326.0094,383.859 Z " fill="#000000"/><text fill="#000000" font-family="sans-serif" font-size="12.6" font-style="italic" lengthAdjust="spacing" textLength="75.6" x="1342.575" y="382.8978">UserInterface</text><line style="stroke:#181818;stroke-width:0.45;" x1="1130.85" x2="1600.65" y1="392.409" y2="392.409"/><line style="stroke:#181818;stroke-width:0.45;" x1="1130.85" x2="1600.65" y1="399.609" y2="399.609"/><ellipse cx="1139.85" cy="413.1396" fill="#84BE84" rx="2.7" ry="2.7" style="stroke:#038048;stroke-width:0.9;"/><text fill="#000000" font-family="sans-serif" font-size="12.6" lengthAdjust="spacing" textLength="228.6" x="1147.95" y="416.6783">printMessage(message : String) : void</text><ellipse cx="1139.85" cy="430.3007" fill="#84BE84" rx="2.7" ry="2.7" style="stroke:#038048;stroke-width:0.9;"/><text fill="#000000" font-family="sans-serif" font-size="12.6" lengthAdjust="spacing" textLength="200.7" x="1147.95" y="433.8395">getInput(prompt : String) : String</text><ellipse cx="1139.85" cy="447.4618" fill="#84BE84" rx="2.7" ry="2.7" style="stroke:#038048;stroke-width:0.9;"/><text fill="#000000" font-family="sans-serif" font-size="12.6" lengthAdjust="spacing" textLength="366.3" x="1147.95" y="451.0006">displayAvailableSpots(parkingGarage : ParkingGarage) : void</text><ellipse cx="1139.85" cy="464.6229" fill="#84BE84" rx="2.7" ry="2.7" style="stroke:#038048;stroke-width:0.9;"/><text fill="#000000" font-family="sans-serif" font-size="12.6" lengthAdjust="spacing" textLength="448.2" x="1147.95" y="468.1617">processPayment(ticket : Ticket, paymentMachine : PaymentMachine) : void</text></g><!--class Main--><g id="elem_Main"><rect codeLine="58" fill="#F1F1F1" height="77.5223" id="Main" rx="2.25" ry="2.25" style="stroke:#181818;stroke-width:0.45;" width="180.9" x="1132.2" y="6.3"/><ellipse cx="1203.525" cy="20.7" fill="#ADD1B2" rx="9.9" ry="9.9" style="stroke:#181818;stroke-width:0.9;"/><path d="M1203.6234,16.6781 Q1202.7938,16.6781 1202.1328,16.9594 Q1201.4859,17.2406 1201.0359,17.775 Q1200.5859,18.2953 1200.3328,19.0828 Q1200.0938,19.8703 1200.0938,20.8547 Q1200.0938,22.1484 1200.4875,23.0906 Q1200.8953,24.0328 1201.6547,24.525 Q1202.4281,25.0172 1203.6094,25.0172 Q1204.3125,25.0172 1204.9313,24.9047 Q1205.5641,24.7781 1206.4641,24.4969 L1206.4641,26.1844 Q1205.6906,26.4797 1205.0016,26.5922 Q1204.3266,26.7047 1203.4125,26.7047 Q1201.6828,26.7047 1200.5016,25.9875 Q1199.3344,25.2563 1198.7438,23.9344 Q1198.1531,22.5984 1198.1531,20.8266 Q1198.1531,19.5469 1198.5047,18.4922 Q1198.8703,17.4234 1199.5734,16.6359 Q1200.2766,15.8484 1201.3031,15.4266 Q1202.3297,14.9906 1203.6516,14.9906 Q1204.5094,14.9906 1205.3109,15.1734 Q1206.1266,15.3422 1206.9703,15.7641 L1206.225,17.3672 Q1205.5219,17.0297 1204.9313,16.8609 Q1204.3406,16.6781 1203.6234,16.6781 Z " fill="#000000"/><text fill="#000000" font-family="sans-serif" font-size="12.6" lengthAdjust="spacing" textLength="30.6" x="1221.975" y="25.5888">Main</text><line style="stroke:#181818;stroke-width:0.45;" x1="1133.1" x2="1312.2" y1="35.1" y2="35.1"/><line style="stroke:#181818;stroke-width:0.45;" x1="1133.1" x2="1312.2" y1="42.3" y2="42.3"/><ellipse cx="1142.1" cy="55.8306" fill="#84BE84" rx="2.7" ry="2.7" style="stroke:#038048;stroke-width:0.9;"/><text fill="#000000" font-family="sans-serif" font-size="12.6" lengthAdjust="spacing" textLength="157.5" x="1150.2" y="59.3693">main(args : String[]) : void</text><ellipse cx="1142.1" cy="72.9917" fill="#84BE84" rx="2.7" ry="2.7" style="stroke:#038048;stroke-width:0.9;"/><text fill="#000000" font-family="sans-serif" font-size="12.6" lengthAdjust="spacing" textLength="64.8" x="1150.2" y="76.5305">run() : void</text></g><!--reverse link Gate to EntranceGate--><g id="link_Gate_EntranceGate"><path d="M519.5677,472.4581 C493.0447,516.0091 459.063,571.797 437.994,606.402 " fill="none" id="Gate-backto-EntranceGate" style="stroke:#181818;stroke-width:0.9;"/><polygon fill="none" points="527.994,458.622,514.9557,469.6493,524.1797,475.2669,527.994,458.622" style="stroke:#181818;stroke-width:0.9;"/></g><!--reverse link Gate to ExitGate--><g id="link_Gate_ExitGate"><path d="M551.25,474.822 C551.25,518.373 551.25,571.797 551.25,606.402 " fill="none" id="Gate-backto-ExitGate" style="stroke:#181818;stroke-width:0.9;"/><polygon fill="none" points="551.25,458.622,545.85,474.822,556.65,474.822,551.25,458.622" style="stroke:#181818;stroke-width:0.9;"/></g><!--link ParkingGarage to UserInterface--><g id="link_ParkingGarage_UserInterface"><path codeLine="64" d="M1075.347,273.204 C1130.913,301.032 1194.1606,332.706 1250.4286,360.885 " fill="none" id="ParkingGarage-to-UserInterface" style="stroke:#181818;stroke-width:0.9;"/><polygon fill="#181818" points="1255.257,363.303,1249.6265,356.457,1251.2334,361.288,1246.4024,362.8948,1255.257,363.303" style="stroke:#181818;stroke-width:0.9;"/><text fill="#000000" font-family="sans-serif" font-size="11.7" lengthAdjust="spacing" textLength="72.9" x="1180.35" y="324.3393">interacts with</text></g><!--link Main to ParkingGarage--><g id="link_Main_ParkingGarage"><path codeLine="65" d="M1166.526,84.258 C1136.259,104.913 1102.5687,127.8977 1067.9277,151.5317 " fill="none" id="Main-to-ParkingGarage" style="stroke:#181818;stroke-width:0.9;"/><polygon fill="#181818" points="1063.467,154.575,1072.187,152.9838,1067.1843,152.0389,1068.1292,147.0362,1063.467,154.575" style="stroke:#181818;stroke-width:0.9;"/><text fill="#000000" font-family="sans-serif" font-size="11.7" lengthAdjust="spacing" textLength="49.5" x="1126.35" y="124.2333">manages</text></g><!--link Main to UserInterface--><g id="link_Main_UserInterface"><path codeLine="66" d="M1237.293,84.096 C1262.718,150.318 1313.2071,281.7979 1342.6191,358.3879 " fill="none" id="Main-to-UserInterface" style="stroke:#181818;stroke-width:0.9;"/><polygon fill="#181818" points="1344.555,363.429,1345.0119,354.5768,1342.9418,359.2281,1338.2905,357.158,1344.555,363.429" style="stroke:#181818;stroke-width:0.9;"/><text fill="#000000" font-family="sans-serif" font-size="11.7" lengthAdjust="spacing" textLength="49.5" x="1313.55" y="224.2863">manages</text></g><!--reverse link ParkingGarage to ParkingSpot--><g id="link_ParkingGarage_ParkingSpot"><path codeLine="69" d="M884.9759,291.0857 C857.8409,313.7297 835.614,332.28 808.497,354.915 " fill="none" id="ParkingGarage-backto-ParkingSpot" style="stroke:#181818;stroke-width:0.9;"/><polygon fill="#181818" points="893.268,284.166,886.8154,284.8618,884.9759,291.0857,891.4285,290.3899,893.268,284.166" style="stroke:#181818;stroke-width:0.9;"/><text fill="#000000" font-family="sans-serif" font-size="11.7" lengthAdjust="spacing" textLength="45.9" x="859.05" y="324.3393">contains</text><text fill="#000000" font-family="sans-serif" font-size="11.7" lengthAdjust="spacing" textLength="18" x="797.8631" y="344.2526">0..*</text></g><!--reverse link ParkingGarage to Gate--><g id="link_ParkingGarage_Gate"><path codeLine="70" d="M853.6667,241.4522 C792.7817,255.2942 726.912,275.589 665.55,310.932 C634.131,329.031 604.503,357.39 583.29,380.466 " fill="none" id="ParkingGarage-backto-Gate" style="stroke:#181818;stroke-width:0.9;"/><polygon fill="#181818" points="864.198,239.058,858.1343,236.7447,853.6667,241.4522,859.7304,243.7655,864.198,239.058" style="stroke:#181818;stroke-width:0.9;"/><text fill="#000000" font-family="sans-serif" font-size="11.7" lengthAdjust="spacing" textLength="170.1" x="666.45" y="324.3393">has (1 EntranceGate, 1 ExitGate)</text><text fill="#000000" font-family="sans-serif" font-size="11.7" lengthAdjust="spacing" textLength="18" x="568.962" y="370.2784">1..2</text></g><!--reverse link ParkingSpot to Ticket--><g id="link_ParkingSpot_Ticket"><path codeLine="73" d="M735.4057,495.269 C736.3687,517.58 737.001,531.972 738,554.913 " fill="none" id="ParkingSpot-backto-Ticket" style="stroke:#181818;stroke-width:0.9;"/><polygon fill="none" points="734.94,484.479,731.5762,490.0292,735.4057,495.269,738.7695,489.7187,734.94,484.479" style="stroke:#181818;stroke-width:0.9;"/><text fill="#000000" font-family="sans-serif" font-size="11.7" lengthAdjust="spacing" textLength="82.8" x="737.55" y="524.4453">associated with</text><text fill="#000000" font-family="sans-serif" font-size="11.7" lengthAdjust="spacing" textLength="6.3" x="731.0995" y="544.4342">1</text></g><!--reverse link ParkingGarage to Display--><g id="link_ParkingGarage_Display"><path codeLine="74" d="M969.75,294.966 C969.75,326.664 969.75,353.106 969.75,380.349 " fill="none" id="ParkingGarage-backto-Display" style="stroke:#181818;stroke-width:0.9;"/><polygon fill="none" points="969.75,284.166,966.15,289.566,969.75,294.966,973.35,289.566,969.75,284.166" style="stroke:#181818;stroke-width:0.9;"/><text fill="#000000" font-family="sans-serif" font-size="11.7" lengthAdjust="spacing" textLength="44.1" x="970.65" y="324.3393">updates</text><text fill="#000000" font-family="sans-serif" font-size="11.7" lengthAdjust="spacing" textLength="6.3" x="962.948" y="370.1428">1</text></g><!--reverse link Ticket to Payment--><g id="link_Ticket_Payment"><path codeLine="75" d="M612.3321,698.8966 C606.9501,701.2816 611.46,699.183 606.15,701.298 C534.537,729.936 452.718,753.885 382.257,771.975 " fill="none" id="Ticket-backto-Payment" style="stroke:#181818;stroke-width:0.9;"/><polygon fill="none" points="622.206,694.521,615.8105,693.4175,612.3321,698.8966,618.7276,700.0001,622.206,694.521" style="stroke:#181818;stroke-width:0.9;"/><text fill="#000000" font-family="sans-serif" font-size="11.7" lengthAdjust="spacing" textLength="53.1" x="523.35" y="741.7053">processes</text><text fill="#000000" font-family="sans-serif" font-size="11.7" lengthAdjust="spacing" textLength="6.3" x="402.5976" y="761.7688">1</text></g><!--reverse link PaymentMachine to Payment--><g id="link_PaymentMachine_Payment"><path codeLine="76" d="M181.1082,669.1801 C187.8762,700.1581 196.245,738.423 203.643,772.263 " fill="none" id="PaymentMachine-backto-Payment" style="stroke:#181818;stroke-width:0.9;"/><polygon fill="none" points="178.803,658.629,176.4386,664.673,181.1082,669.1801,183.4726,663.1362,178.803,658.629" style="stroke:#181818;stroke-width:0.9;"/><text fill="#000000" font-family="sans-serif" font-size="11.7" lengthAdjust="spacing" textLength="42.3" x="198.45" y="741.7053">handles</text><text fill="#000000" font-family="sans-serif" font-size="11.7" lengthAdjust="spacing" textLength="18" x="182.7765" y="761.8137">0..1</text></g><!--SRC=[dPHDRzim38Rl-HL2BdFQ9bXtz650qMv53jaAj3iDFJ0owmYr9K6KkmR3_lleBpbI-e4jbqGaGpvwIH6sv1r8BsG5HE8QF8hVCy6VKs4iwjQGBKGkdemg1hki367i-3ERzGc-Q4wdPUSM-EnH5o7h5FIi_9i1D-0UbIwlmK4vyYo5DnwgMsiySLcb_M269r0LR2jCNQUYH7yHUJlYoM-vpYMupdgdv2EE3cJ2rk4xO_2sSLjZAWHz1Dlc3wZ4XszDlKKNeIhwBcLZ5HO7YGQnMyU-JPBA_U0GNx8h2dVBNWJhcIVvkkEwBNth7HC7A6hmJjN8ZYjkn62se8ufMT2lY9bid4Fj3_xK0XIcOPOWxJw3sZJQ1y_YA9sY6wwIlIBhlkOQ0Jz9DfPnHYBH49pswqoyWP1Mse3SAJsDFz-Wp_9_MQyKsGhs4__hOzhOWYLC9fMciCDdnaTq3o1H_21qwt0ArDnPls59-ELaTVyTEfvC47TphMtZCrQnjZuAEnYHKr7qTqa8RVHAy_ZL9gNUwvEDUv0dJJbUD1jGEbowvaC6hgG0_lC-0N2DZjRL1t51PAG2humcyKlvdTWqbLUsKbBv_IpUGSlbvqJmhZFOxix-txEEg8sxINIfGVCFcWBIH6C0Grro8mof5aeuh7gwdRBl4vuibsB-SRKwcKSRAHVIQC-LwQNuyzNgqxnVlxdO0OdiF5hXP-8yREj59rfPEYpXN_Ww3DDLcuyxAHSmgC-hi5ClXXl3nqUK3s-4PaE2CM3S4lauOTZUCvebCmWJHUz05nNINm00]--></g></svg>