<?xml version="1.0" encoding="us-ascii" standalone="no"?><svg xmlns="http://www.w3.org/2000/svg" xmlns:xlink="http://www.w3.org/1999/xlink" contentStyleType="text/css" height="1110px" preserveAspectRatio="none" style="width:1625px;height:1110px;background:#FFFFFF;" version="1.1" viewBox="0 0 1625 1110" width="1625px" zoomAndPan="magnify"><defs/><g><!--class Gate--><g id="elem_Gate"><rect codeLine="1" fill="#F1F1F1" height="85.2422" id="Gate" rx="2.5" ry="2.5" style="stroke:#181818;stroke-width:0.5;" width="138" x="68" y="733"/><ellipse cx="117.25" cy="749" fill="#A9DCDF" rx="11" ry="11" style="stroke:#181818;stroke-width:1.0;"/><path d="M119.4375,750.7656 L115.2969,750.7656 L114.875,751.7969 L115.2969,751.7969 Q115.9063,751.7969 116.1719,752.0313 Q116.4375,752.2656 116.4375,752.6563 Q116.4375,753.0313 116.1719,753.2656 Q115.9063,753.5 115.2969,753.5 L113,753.5 Q112.3906,753.5 112.1406,753.2656 Q111.875,753.0313 111.875,752.6406 Q111.875,752.2656 112.1563,752.0313 Q112.4219,751.7813 113.0469,751.7969 L115.7188,745.1406 L114.6094,745.1406 Q114,745.1406 113.7344,744.9063 Q113.4688,744.6719 113.4688,744.2813 Q113.4688,743.9063 113.7344,743.6719 Q114,743.4375 114.6094,743.4375 L118.2813,743.4375 L121.6719,751.7969 Q122.2656,751.7969 122.4531,751.9375 Q122.8438,752.2031 122.8438,752.6563 Q122.8438,753.0313 122.5781,753.2656 Q122.3281,753.5 121.7188,753.5 L119.4219,753.5 Q118.8125,753.5 118.5469,753.2656 Q118.2813,753.0313 118.2813,752.6406 Q118.2813,752.2656 118.5469,752.0313 Q118.8125,751.7969 119.4219,751.7969 L119.8438,751.7969 L119.4375,750.7656 Z M118.7188,749.0625 L117.3594,745.6875 L115.9844,749.0625 L118.7188,749.0625 Z " fill="#000000"/><text fill="#000000" font-family="sans-serif" font-size="14" font-style="italic" lengthAdjust="spacing" textLength="31" x="137.75" y="754.7969">Gate</text><line style="stroke:#181818;stroke-width:0.5;" x1="69" x2="205" y1="765" y2="765"/><line style="stroke:#181818;stroke-width:0.5;" x1="69" x2="205" y1="773" y2="773"/><ellipse cx="79" cy="787.8105" fill="#84BE84" rx="3" ry="3" style="stroke:#038048;stroke-width:1.0;"/><text fill="#000000" font-family="sans-serif" font-size="14" lengthAdjust="spacing" textLength="111" x="88" y="792.1074">openGate() : void</text><ellipse cx="79" cy="806.4316" fill="#84BE84" rx="3" ry="3" style="stroke:#038048;stroke-width:1.0;"/><text fill="#000000" font-family="sans-serif" font-size="14" lengthAdjust="spacing" textLength="112" x="88" y="810.7285">closeGate() : void</text></g><!--class EntranceGate--><g id="elem_EntranceGate"><rect codeLine="6" fill="#F1F1F1" height="48" id="EntranceGate" rx="2.5" ry="2.5" style="stroke:#181818;stroke-width:0.5;" width="120" x="7" y="990"/><ellipse cx="22" cy="1006" fill="#ADD1B2" rx="11" ry="11" style="stroke:#181818;stroke-width:1.0;"/><path d="M24.7656,1001.875 Q24.9219,1001.6563 25.1094,1001.5469 Q25.2969,1001.4375 25.5156,1001.4375 Q25.8906,1001.4375 26.125,1001.7031 Q26.3594,1001.9531 26.3594,1002.5625 L26.3594,1004.0156 Q26.3594,1004.625 26.125,1004.8906 Q25.8906,1005.1563 25.5156,1005.1563 Q25.1719,1005.1563 24.9688,1004.9531 Q24.7656,1004.7656 24.6563,1004.25 Q24.6094,1003.8906 24.4219,1003.7031 Q24.0938,1003.3281 23.4844,1003.1094 Q22.875,1002.8906 22.25,1002.8906 Q21.4844,1002.8906 20.8438,1003.2188 Q20.2188,1003.5469 19.7188,1004.2969 Q19.2344,1005.0469 19.2344,1006.0781 L19.2344,1007.1719 Q19.2344,1008.4063 20.125,1009.2344 Q21.0156,1010.0469 22.6094,1010.0469 Q23.5469,1010.0469 24.2031,1009.7969 Q24.5938,1009.6406 25.0156,1009.2031 Q25.2813,1008.9375 25.4219,1008.8594 Q25.5781,1008.7813 25.7813,1008.7813 Q26.1094,1008.7813 26.3594,1009.0469 Q26.625,1009.2969 26.625,1009.6406 Q26.625,1009.9844 26.2813,1010.3906 Q25.7813,1010.9688 24.9844,1011.2969 Q23.9063,1011.75 22.6094,1011.75 Q21.0938,1011.75 19.8906,1011.125 Q18.9063,1010.625 18.2188,1009.5625 Q17.5313,1008.4844 17.5313,1007.2031 L17.5313,1006.0469 Q17.5313,1004.7188 18.1406,1003.5781 Q18.7656,1002.4219 19.8594,1001.8125 Q20.9531,1001.1875 22.1875,1001.1875 Q22.9219,1001.1875 23.5625,1001.3594 Q24.2188,1001.5156 24.7656,1001.875 Z " fill="#000000"/><text fill="#000000" font-family="sans-serif" font-size="14" lengthAdjust="spacing" textLength="88" x="36" y="1011.7969">EntranceGate</text><line style="stroke:#181818;stroke-width:0.5;" x1="8" x2="126" y1="1022" y2="1022"/><line style="stroke:#181818;stroke-width:0.5;" x1="8" x2="126" y1="1030" y2="1030"/></g><!--class ExitGate--><g id="elem_ExitGate"><rect codeLine="9" fill="#F1F1F1" height="48" id="ExitGate" rx="2.5" ry="2.5" style="stroke:#181818;stroke-width:0.5;" width="85" x="162.5" y="990"/><ellipse cx="177.5" cy="1006" fill="#ADD1B2" rx="11" ry="11" style="stroke:#181818;stroke-width:1.0;"/><path d="M180.2656,1001.875 Q180.4219,1001.6563 180.6094,1001.5469 Q180.7969,1001.4375 181.0156,1001.4375 Q181.3906,1001.4375 181.625,1001.7031 Q181.8594,1001.9531 181.8594,1002.5625 L181.8594,1004.0156 Q181.8594,1004.625 181.625,1004.8906 Q181.3906,1005.1563 181.0156,1005.1563 Q180.6719,1005.1563 180.4688,1004.9531 Q180.2656,1004.7656 180.1563,1004.25 Q180.1094,1003.8906 179.9219,1003.7031 Q179.5938,1003.3281 178.9844,1003.1094 Q178.375,1002.8906 177.75,1002.8906 Q176.9844,1002.8906 176.3438,1003.2188 Q175.7188,1003.5469 175.2188,1004.2969 Q174.7344,1005.0469 174.7344,1006.0781 L174.7344,1007.1719 Q174.7344,1008.4063 175.625,1009.2344 Q176.5156,1010.0469 178.1094,1010.0469 Q179.0469,1010.0469 179.7031,1009.7969 Q180.0938,1009.6406 180.5156,1009.2031 Q180.7813,1008.9375 180.9219,1008.8594 Q181.0781,1008.7813 181.2813,1008.7813 Q181.6094,1008.7813 181.8594,1009.0469 Q182.125,1009.2969 182.125,1009.6406 Q182.125,1009.9844 181.7813,1010.3906 Q181.2813,1010.9688 180.4844,1011.2969 Q179.4063,1011.75 178.1094,1011.75 Q176.5938,1011.75 175.3906,1011.125 Q174.4063,1010.625 173.7188,1009.5625 Q173.0313,1008.4844 173.0313,1007.2031 L173.0313,1006.0469 Q173.0313,1004.7188 173.6406,1003.5781 Q174.2656,1002.4219 175.3594,1001.8125 Q176.4531,1001.1875 177.6875,1001.1875 Q178.4219,1001.1875 179.0625,1001.3594 Q179.7188,1001.5156 180.2656,1001.875 Z " fill="#000000"/><text fill="#000000" font-family="sans-serif" font-size="14" lengthAdjust="spacing" textLength="53" x="191.5" y="1011.7969">ExitGate</text><line style="stroke:#181818;stroke-width:0.5;" x1="163.5" x2="246.5" y1="1022" y2="1022"/><line style="stroke:#181818;stroke-width:0.5;" x1="163.5" x2="246.5" y1="1030" y2="1030"/></g><!--class ParkingGarage--><g id="elem_ParkingGarage"><rect codeLine="12" fill="#F1F1F1" height="178.3477" id="ParkingGarage" rx="2.5" ry="2.5" style="stroke:#181818;stroke-width:0.5;" width="267" x="355.5" y="448"/><ellipse cx="436.75" cy="464" fill="#ADD1B2" rx="11" ry="11" style="stroke:#181818;stroke-width:1.0;"/><path d="M439.5156,459.875 Q439.6719,459.6563 439.8594,459.5469 Q440.0469,459.4375 440.2656,459.4375 Q440.6406,459.4375 440.875,459.7031 Q441.1094,459.9531 441.1094,460.5625 L441.1094,462.0156 Q441.1094,462.625 440.875,462.8906 Q440.6406,463.1563 440.2656,463.1563 Q439.9219,463.1563 439.7188,462.9531 Q439.5156,462.7656 439.4063,462.25 Q439.3594,461.8906 439.1719,461.7031 Q438.8438,461.3281 438.2344,461.1094 Q437.625,460.8906 437,460.8906 Q436.2344,460.8906 435.5938,461.2188 Q434.9688,461.5469 434.4688,462.2969 Q433.9844,463.0469 433.9844,464.0781 L433.9844,465.1719 Q433.9844,466.4063 434.875,467.2344 Q435.7656,468.0469 437.3594,468.0469 Q438.2969,468.0469 438.9531,467.7969 Q439.3438,467.6406 439.7656,467.2031 Q440.0313,466.9375 440.1719,466.8594 Q440.3281,466.7813 440.5313,466.7813 Q440.8594,466.7813 441.1094,467.0469 Q441.375,467.2969 441.375,467.6406 Q441.375,467.9844 441.0313,468.3906 Q440.5313,468.9688 439.7344,469.2969 Q438.6563,469.75 437.3594,469.75 Q435.8438,469.75 434.6406,469.125 Q433.6563,468.625 432.9688,467.5625 Q432.2813,466.4844 432.2813,465.2031 L432.2813,464.0469 Q432.2813,462.7188 432.8906,461.5781 Q433.5156,460.4219 434.6094,459.8125 Q435.7031,459.1875 436.9375,459.1875 Q437.6719,459.1875 438.3125,459.3594 Q438.9688,459.5156 439.5156,459.875 Z " fill="#000000"/><text fill="#000000" font-family="sans-serif" font-size="14" lengthAdjust="spacing" textLength="96" x="457.25" y="469.7969">ParkingGarage</text><line style="stroke:#181818;stroke-width:0.5;" x1="356.5" x2="621.5" y1="480" y2="480"/><rect fill="none" height="6" style="stroke:#C82930;stroke-width:1.0;" width="6" x="363.5" y="491.8105"/><text fill="#000000" font-family="sans-serif" font-size="14" lengthAdjust="spacing" textLength="90" x="375.5" y="499.1074">totalSpots : int</text><rect fill="none" height="6" style="stroke:#C82930;stroke-width:1.0;" width="6" x="363.5" y="510.4316"/><text fill="#000000" font-family="sans-serif" font-size="14" lengthAdjust="spacing" textLength="119" x="375.5" y="517.7285">availableSpots : int</text><line style="stroke:#181818;stroke-width:0.5;" x1="356.5" x2="621.5" y1="525.2422" y2="525.2422"/><ellipse cx="366.5" cy="540.0527" fill="#84BE84" rx="3" ry="3" style="stroke:#038048;stroke-width:1.0;"/><text fill="#000000" font-family="sans-serif" font-size="14" lengthAdjust="spacing" textLength="150" x="375.5" y="544.3496">getAvailableSpots() : int</text><ellipse cx="366.5" cy="558.6738" fill="#84BE84" rx="3" ry="3" style="stroke:#038048;stroke-width:1.0;"/><text fill="#000000" font-family="sans-serif" font-size="14" lengthAdjust="spacing" textLength="111" x="375.5" y="562.9707">parkCar() : Ticket</text><ellipse cx="366.5" cy="577.2949" fill="#84BE84" rx="3" ry="3" style="stroke:#038048;stroke-width:1.0;"/><text fill="#000000" font-family="sans-serif" font-size="14" lengthAdjust="spacing" textLength="200" x="375.5" y="581.5918">exitCar(ticket : Ticket) : boolean</text><ellipse cx="366.5" cy="595.916" fill="#84BE84" rx="3" ry="3" style="stroke:#038048;stroke-width:1.0;"/><text fill="#000000" font-family="sans-serif" font-size="14" lengthAdjust="spacing" textLength="175" x="375.5" y="600.2129">listAllTickets() : List&lt;Ticket&gt;</text><ellipse cx="366.5" cy="614.5371" fill="#84BE84" rx="3" ry="3" style="stroke:#038048;stroke-width:1.0;"/><text fill="#000000" font-family="sans-serif" font-size="14" lengthAdjust="spacing" textLength="241" x="375.5" y="618.834">findTicketById(ticketId : String) : Ticket</text></g><!--class ParkingSpot--><g id="elem_ParkingSpot"><rect codeLine="22" fill="#F1F1F1" height="141.1055" id="ParkingSpot" rx="2.5" ry="2.5" style="stroke:#181818;stroke-width:0.5;" width="166" x="241" y="705"/><ellipse cx="281.65" cy="721" fill="#ADD1B2" rx="11" ry="11" style="stroke:#181818;stroke-width:1.0;"/><path d="M284.4156,716.875 Q284.5719,716.6563 284.7594,716.5469 Q284.9469,716.4375 285.1656,716.4375 Q285.5406,716.4375 285.775,716.7031 Q286.0094,716.9531 286.0094,717.5625 L286.0094,719.0156 Q286.0094,719.625 285.775,719.8906 Q285.5406,720.1563 285.1656,720.1563 Q284.8219,720.1563 284.6188,719.9531 Q284.4156,719.7656 284.3063,719.25 Q284.2594,718.8906 284.0719,718.7031 Q283.7438,718.3281 283.1344,718.1094 Q282.525,717.8906 281.9,717.8906 Q281.1344,717.8906 280.4938,718.2188 Q279.8688,718.5469 279.3688,719.2969 Q278.8844,720.0469 278.8844,721.0781 L278.8844,722.1719 Q278.8844,723.4063 279.775,724.2344 Q280.6656,725.0469 282.2594,725.0469 Q283.1969,725.0469 283.8531,724.7969 Q284.2438,724.6406 284.6656,724.2031 Q284.9313,723.9375 285.0719,723.8594 Q285.2281,723.7813 285.4313,723.7813 Q285.7594,723.7813 286.0094,724.0469 Q286.275,724.2969 286.275,724.6406 Q286.275,724.9844 285.9313,725.3906 Q285.4313,725.9688 284.6344,726.2969 Q283.5563,726.75 282.2594,726.75 Q280.7438,726.75 279.5406,726.125 Q278.5563,725.625 277.8688,724.5625 Q277.1813,723.4844 277.1813,722.2031 L277.1813,721.0469 Q277.1813,719.7188 277.7906,718.5781 Q278.4156,717.4219 279.5094,716.8125 Q280.6031,716.1875 281.8375,716.1875 Q282.5719,716.1875 283.2125,716.3594 Q283.8688,716.5156 284.4156,716.875 Z " fill="#000000"/><text fill="#000000" font-family="sans-serif" font-size="14" lengthAdjust="spacing" textLength="77" x="301.35" y="726.7969">ParkingSpot</text><line style="stroke:#181818;stroke-width:0.5;" x1="242" x2="406" y1="737" y2="737"/><rect fill="none" height="6" style="stroke:#C82930;stroke-width:1.0;" width="6" x="249" y="748.8105"/><text fill="#000000" font-family="sans-serif" font-size="14" lengthAdjust="spacing" textLength="103" x="261" y="756.1074">spotNumber : int</text><rect fill="none" height="6" style="stroke:#C82930;stroke-width:1.0;" width="6" x="249" y="767.4316"/><text fill="#000000" font-family="sans-serif" font-size="14" lengthAdjust="spacing" textLength="133" x="261" y="774.7285">isOccupied : boolean</text><line style="stroke:#181818;stroke-width:0.5;" x1="242" x2="406" y1="782.2422" y2="782.2422"/><ellipse cx="252" cy="797.0527" fill="#84BE84" rx="3" ry="3" style="stroke:#038048;stroke-width:1.0;"/><text fill="#000000" font-family="sans-serif" font-size="14" lengthAdjust="spacing" textLength="122" x="261" y="801.3496">occupySpot() : void</text><ellipse cx="252" cy="815.6738" fill="#84BE84" rx="3" ry="3" style="stroke:#038048;stroke-width:1.0;"/><text fill="#000000" font-family="sans-serif" font-size="14" lengthAdjust="spacing" textLength="102" x="261" y="819.9707">freeSpot() : void</text><ellipse cx="252" cy="834.2949" fill="#84BE84" rx="3" ry="3" style="stroke:#038048;stroke-width:1.0;"/><text fill="#000000" font-family="sans-serif" font-size="14" lengthAdjust="spacing" textLength="140" x="261" y="838.5918">isAvailable() : boolean</text></g><!--class Ticket--><g id="elem_Ticket"><rect codeLine="30" fill="#F1F1F1" height="178.3477" id="Ticket" rx="2.5" ry="2.5" style="stroke:#181818;stroke-width:0.5;" width="254" x="305" y="925"/><ellipse cx="408.75" cy="941" fill="#ADD1B2" rx="11" ry="11" style="stroke:#181818;stroke-width:1.0;"/><path d="M411.5156,936.875 Q411.6719,936.6563 411.8594,936.5469 Q412.0469,936.4375 412.2656,936.4375 Q412.6406,936.4375 412.875,936.7031 Q413.1094,936.9531 413.1094,937.5625 L413.1094,939.0156 Q413.1094,939.625 412.875,939.8906 Q412.6406,940.1563 412.2656,940.1563 Q411.9219,940.1563 411.7188,939.9531 Q411.5156,939.7656 411.4063,939.25 Q411.3594,938.8906 411.1719,938.7031 Q410.8438,938.3281 410.2344,938.1094 Q409.625,937.8906 409,937.8906 Q408.2344,937.8906 407.5938,938.2188 Q406.9688,938.5469 406.4688,939.2969 Q405.9844,940.0469 405.9844,941.0781 L405.9844,942.1719 Q405.9844,943.4063 406.875,944.2344 Q407.7656,945.0469 409.3594,945.0469 Q410.2969,945.0469 410.9531,944.7969 Q411.3438,944.6406 411.7656,944.2031 Q412.0313,943.9375 412.1719,943.8594 Q412.3281,943.7813 412.5313,943.7813 Q412.8594,943.7813 413.1094,944.0469 Q413.375,944.2969 413.375,944.6406 Q413.375,944.9844 413.0313,945.3906 Q412.5313,945.9688 411.7344,946.2969 Q410.6563,946.75 409.3594,946.75 Q407.8438,946.75 406.6406,946.125 Q405.6563,945.625 404.9688,944.5625 Q404.2813,943.4844 404.2813,942.2031 L404.2813,941.0469 Q404.2813,939.7188 404.8906,938.5781 Q405.5156,937.4219 406.6094,936.8125 Q407.7031,936.1875 408.9375,936.1875 Q409.6719,936.1875 410.3125,936.3594 Q410.9688,936.5156 411.5156,936.875 Z " fill="#000000"/><text fill="#000000" font-family="sans-serif" font-size="14" lengthAdjust="spacing" textLength="38" x="429.25" y="946.7969">Ticket</text><line style="stroke:#181818;stroke-width:0.5;" x1="306" x2="558" y1="957" y2="957"/><rect fill="none" height="6" style="stroke:#C82930;stroke-width:1.0;" width="6" x="313" y="968.8105"/><text fill="#000000" font-family="sans-serif" font-size="14" lengthAdjust="spacing" textLength="93" x="325" y="976.1074">ticketId : String</text><rect fill="none" height="6" style="stroke:#C82930;stroke-width:1.0;" width="6" x="313" y="987.4316"/><text fill="#000000" font-family="sans-serif" font-size="14" lengthAdjust="spacing" textLength="106" x="325" y="994.7285">issueTime : Date</text><rect fill="none" height="6" style="stroke:#C82930;stroke-width:1.0;" width="6" x="313" y="1006.0527"/><text fill="#000000" font-family="sans-serif" font-size="14" lengthAdjust="spacing" textLength="90" x="325" y="1013.3496">paid : boolean</text><line style="stroke:#181818;stroke-width:0.5;" x1="306" x2="558" y1="1020.8633" y2="1020.8633"/><ellipse cx="316" cy="1035.6738" fill="#84BE84" rx="3" ry="3" style="stroke:#038048;stroke-width:1.0;"/><text fill="#000000" font-family="sans-serif" font-size="14" lengthAdjust="spacing" textLength="228" x="325" y="1039.9707">getFee(currentTime : Date) : double</text><ellipse cx="316" cy="1054.2949" fill="#84BE84" rx="3" ry="3" style="stroke:#038048;stroke-width:1.0;"/><text fill="#000000" font-family="sans-serif" font-size="14" lengthAdjust="spacing" textLength="198" x="325" y="1058.5918">pay(amount : double) : boolean</text><ellipse cx="316" cy="1072.916" fill="#84BE84" rx="3" ry="3" style="stroke:#038048;stroke-width:1.0;"/><text fill="#000000" font-family="sans-serif" font-size="14" lengthAdjust="spacing" textLength="111" x="325" y="1077.2129">isPaid() : boolean</text><ellipse cx="316" cy="1091.5371" fill="#84BE84" rx="3" ry="3" style="stroke:#038048;stroke-width:1.0;"/><text fill="#000000" font-family="sans-serif" font-size="14" lengthAdjust="spacing" textLength="128" x="325" y="1095.834">getTicketId() : String</text></g><!--class Payment--><g id="elem_Payment"><rect codeLine="40" fill="#F1F1F1" height="85.2422" id="Payment" rx="2.5" ry="2.5" style="stroke:#181818;stroke-width:0.5;" width="397" x="749.5" y="733"/><ellipse cx="916.25" cy="749" fill="#ADD1B2" rx="11" ry="11" style="stroke:#181818;stroke-width:1.0;"/><path d="M919.0156,744.875 Q919.1719,744.6563 919.3594,744.5469 Q919.5469,744.4375 919.7656,744.4375 Q920.1406,744.4375 920.375,744.7031 Q920.6094,744.9531 920.6094,745.5625 L920.6094,747.0156 Q920.6094,747.625 920.375,747.8906 Q920.1406,748.1563 919.7656,748.1563 Q919.4219,748.1563 919.2188,747.9531 Q919.0156,747.7656 918.9063,747.25 Q918.8594,746.8906 918.6719,746.7031 Q918.3438,746.3281 917.7344,746.1094 Q917.125,745.8906 916.5,745.8906 Q915.7344,745.8906 915.0938,746.2188 Q914.4688,746.5469 913.9688,747.2969 Q913.4844,748.0469 913.4844,749.0781 L913.4844,750.1719 Q913.4844,751.4063 914.375,752.2344 Q915.2656,753.0469 916.8594,753.0469 Q917.7969,753.0469 918.4531,752.7969 Q918.8438,752.6406 919.2656,752.2031 Q919.5313,751.9375 919.6719,751.8594 Q919.8281,751.7813 920.0313,751.7813 Q920.3594,751.7813 920.6094,752.0469 Q920.875,752.2969 920.875,752.6406 Q920.875,752.9844 920.5313,753.3906 Q920.0313,753.9688 919.2344,754.2969 Q918.1563,754.75 916.8594,754.75 Q915.3438,754.75 914.1406,754.125 Q913.1563,753.625 912.4688,752.5625 Q911.7813,751.4844 911.7813,750.2031 L911.7813,749.0469 Q911.7813,747.7188 912.3906,746.5781 Q913.0156,745.4219 914.1094,744.8125 Q915.2031,744.1875 916.4375,744.1875 Q917.1719,744.1875 917.8125,744.3594 Q918.4688,744.5156 919.0156,744.875 Z " fill="#000000"/><text fill="#000000" font-family="sans-serif" font-size="14" lengthAdjust="spacing" textLength="55" x="936.75" y="754.7969">Payment</text><line style="stroke:#181818;stroke-width:0.5;" x1="750.5" x2="1145.5" y1="765" y2="765"/><rect fill="none" height="6" style="stroke:#C82930;stroke-width:1.0;" width="6" x="757.5" y="776.8105"/><text fill="#000000" font-family="sans-serif" font-size="14" lengthAdjust="spacing" textLength="102" x="769.5" y="784.1074">amount : double</text><line style="stroke:#181818;stroke-width:0.5;" x1="750.5" x2="1145.5" y1="791.6211" y2="791.6211"/><ellipse cx="760.5" cy="806.4316" fill="#84BE84" rx="3" ry="3" style="stroke:#038048;stroke-width:1.0;"/><text fill="#000000" font-family="sans-serif" font-size="14" lengthAdjust="spacing" textLength="371" x="769.5" y="810.7285">processPayment(ticket : Ticket, amount : double) : boolean</text></g><!--class PaymentMachine--><g id="elem_PaymentMachine"><rect codeLine="45" fill="#F1F1F1" height="66.6211" id="PaymentMachine" rx="2.5" ry="2.5" style="stroke:#181818;stroke-width:0.5;" width="353" x="733.5" y="503.5"/><ellipse cx="851.75" cy="519.5" fill="#ADD1B2" rx="11" ry="11" style="stroke:#181818;stroke-width:1.0;"/><path d="M854.5156,515.375 Q854.6719,515.1563 854.8594,515.0469 Q855.0469,514.9375 855.2656,514.9375 Q855.6406,514.9375 855.875,515.2031 Q856.1094,515.4531 856.1094,516.0625 L856.1094,517.5156 Q856.1094,518.125 855.875,518.3906 Q855.6406,518.6563 855.2656,518.6563 Q854.9219,518.6563 854.7188,518.4531 Q854.5156,518.2656 854.4063,517.75 Q854.3594,517.3906 854.1719,517.2031 Q853.8438,516.8281 853.2344,516.6094 Q852.625,516.3906 852,516.3906 Q851.2344,516.3906 850.5938,516.7188 Q849.9688,517.0469 849.4688,517.7969 Q848.9844,518.5469 848.9844,519.5781 L848.9844,520.6719 Q848.9844,521.9063 849.875,522.7344 Q850.7656,523.5469 852.3594,523.5469 Q853.2969,523.5469 853.9531,523.2969 Q854.3438,523.1406 854.7656,522.7031 Q855.0313,522.4375 855.1719,522.3594 Q855.3281,522.2813 855.5313,522.2813 Q855.8594,522.2813 856.1094,522.5469 Q856.375,522.7969 856.375,523.1406 Q856.375,523.4844 856.0313,523.8906 Q855.5313,524.4688 854.7344,524.7969 Q853.6563,525.25 852.3594,525.25 Q850.8438,525.25 849.6406,524.625 Q848.6563,524.125 847.9688,523.0625 Q847.2813,521.9844 847.2813,520.7031 L847.2813,519.5469 Q847.2813,518.2188 847.8906,517.0781 Q848.5156,515.9219 849.6094,515.3125 Q850.7031,514.6875 851.9375,514.6875 Q852.6719,514.6875 853.3125,514.8594 Q853.9688,515.0156 854.5156,515.375 Z " fill="#000000"/><text fill="#000000" font-family="sans-serif" font-size="14" lengthAdjust="spacing" textLength="108" x="872.25" y="525.2969">PaymentMachine</text><line style="stroke:#181818;stroke-width:0.5;" x1="734.5" x2="1085.5" y1="535.5" y2="535.5"/><line style="stroke:#181818;stroke-width:0.5;" x1="734.5" x2="1085.5" y1="543.5" y2="543.5"/><ellipse cx="744.5" cy="558.3105" fill="#84BE84" rx="3" ry="3" style="stroke:#038048;stroke-width:1.0;"/><text fill="#000000" font-family="sans-serif" font-size="14" lengthAdjust="spacing" textLength="327" x="753.5" y="562.6074">payTicket(ticket : Ticket, amount : double) : boolean</text></g><!--class Display--><g id="elem_Display"><rect codeLine="49" fill="#F1F1F1" height="85.2422" id="Display" rx="2.5" ry="2.5" style="stroke:#181818;stroke-width:0.5;" width="272" x="442" y="733"/><ellipse cx="550.75" cy="749" fill="#ADD1B2" rx="11" ry="11" style="stroke:#181818;stroke-width:1.0;"/><path d="M553.5156,744.875 Q553.6719,744.6563 553.8594,744.5469 Q554.0469,744.4375 554.2656,744.4375 Q554.6406,744.4375 554.875,744.7031 Q555.1094,744.9531 555.1094,745.5625 L555.1094,747.0156 Q555.1094,747.625 554.875,747.8906 Q554.6406,748.1563 554.2656,748.1563 Q553.9219,748.1563 553.7188,747.9531 Q553.5156,747.7656 553.4063,747.25 Q553.3594,746.8906 553.1719,746.7031 Q552.8438,746.3281 552.2344,746.1094 Q551.625,745.8906 551,745.8906 Q550.2344,745.8906 549.5938,746.2188 Q548.9688,746.5469 548.4688,747.2969 Q547.9844,748.0469 547.9844,749.0781 L547.9844,750.1719 Q547.9844,751.4063 548.875,752.2344 Q549.7656,753.0469 551.3594,753.0469 Q552.2969,753.0469 552.9531,752.7969 Q553.3438,752.6406 553.7656,752.2031 Q554.0313,751.9375 554.1719,751.8594 Q554.3281,751.7813 554.5313,751.7813 Q554.8594,751.7813 555.1094,752.0469 Q555.375,752.2969 555.375,752.6406 Q555.375,752.9844 555.0313,753.3906 Q554.5313,753.9688 553.7344,754.2969 Q552.6563,754.75 551.3594,754.75 Q549.8438,754.75 548.6406,754.125 Q547.6563,753.625 546.9688,752.5625 Q546.2813,751.4844 546.2813,750.2031 L546.2813,749.0469 Q546.2813,747.7188 546.8906,746.5781 Q547.5156,745.4219 548.6094,744.8125 Q549.7031,744.1875 550.9375,744.1875 Q551.6719,744.1875 552.3125,744.3594 Q552.9688,744.5156 553.5156,744.875 Z " fill="#000000"/><text fill="#000000" font-family="sans-serif" font-size="14" lengthAdjust="spacing" textLength="46" x="571.25" y="754.7969">Display</text><line style="stroke:#181818;stroke-width:0.5;" x1="443" x2="713" y1="765" y2="765"/><rect fill="none" height="6" style="stroke:#C82930;stroke-width:1.0;" width="6" x="450" y="776.8105"/><text fill="#000000" font-family="sans-serif" font-size="14" lengthAdjust="spacing" textLength="119" x="462" y="784.1074">availableSpots : int</text><line style="stroke:#181818;stroke-width:0.5;" x1="443" x2="713" y1="791.6211" y2="791.6211"/><ellipse cx="453" cy="806.4316" fill="#84BE84" rx="3" ry="3" style="stroke:#038048;stroke-width:1.0;"/><text fill="#000000" font-family="sans-serif" font-size="14" lengthAdjust="spacing" textLength="246" x="462" y="810.7285">updateAvailableSpots(spots : int) : void</text></g><!--class UserInterface--><g id="elem_UserInterface"><rect codeLine="54" fill="#F1F1F1" height="122.4844" id="UserInterface" rx="2.5" ry="2.5" style="stroke:#181818;stroke-width:0.5;" width="497" x="1121.5" y="476"/><ellipse cx="1322.75" cy="492" fill="#B4A7E5" rx="11" ry="11" style="stroke:#181818;stroke-width:1.0;"/><path d="M1323.7031,488.6406 L1323.7031,495.2969 L1325.4219,495.2969 Q1326.0313,495.2969 1326.2969,495.5313 Q1326.5625,495.7656 1326.5625,496.1563 Q1326.5625,496.5313 1326.2969,496.7656 Q1326.0313,497 1325.4219,497 L1320.2813,497 Q1319.6719,497 1319.4063,496.7656 Q1319.1406,496.5313 1319.1406,496.1406 Q1319.1406,495.7656 1319.4063,495.5313 Q1319.6719,495.2969 1320.2813,495.2969 L1322,495.2969 L1322,488.6406 L1320.2813,488.6406 Q1319.6719,488.6406 1319.4063,488.4063 Q1319.1406,488.1719 1319.1406,487.7813 Q1319.1406,487.4063 1319.4063,487.1719 Q1319.6719,486.9375 1320.2813,486.9375 L1325.4219,486.9375 Q1326.0313,486.9375 1326.2969,487.1719 Q1326.5625,487.4063 1326.5625,487.7813 Q1326.5625,488.1719 1326.2969,488.4063 Q1326.0313,488.6406 1325.4219,488.6406 L1323.7031,488.6406 Z " fill="#000000"/><text fill="#000000" font-family="sans-serif" font-size="14" font-style="italic" lengthAdjust="spacing" textLength="86" x="1343.25" y="497.7969">UserInterface</text><line style="stroke:#181818;stroke-width:0.5;" x1="1122.5" x2="1617.5" y1="508" y2="508"/><line style="stroke:#181818;stroke-width:0.5;" x1="1122.5" x2="1617.5" y1="516" y2="516"/><ellipse cx="1132.5" cy="530.8105" fill="#84BE84" rx="3" ry="3" style="stroke:#038048;stroke-width:1.0;"/><text fill="#000000" font-family="sans-serif" font-size="14" lengthAdjust="spacing" textLength="239" x="1141.5" y="535.1074">printMessage(message : String) : void</text><ellipse cx="1132.5" cy="549.4316" fill="#84BE84" rx="3" ry="3" style="stroke:#038048;stroke-width:1.0;"/><text fill="#000000" font-family="sans-serif" font-size="14" lengthAdjust="spacing" textLength="203" x="1141.5" y="553.7285">getInput(prompt : String) : String</text><ellipse cx="1132.5" cy="568.0527" fill="#84BE84" rx="3" ry="3" style="stroke:#038048;stroke-width:1.0;"/><text fill="#000000" font-family="sans-serif" font-size="14" lengthAdjust="spacing" textLength="388" x="1141.5" y="572.3496">displayAvailableSpots(parkingGarage : ParkingGarage) : void</text><ellipse cx="1132.5" cy="586.6738" fill="#84BE84" rx="3" ry="3" style="stroke:#038048;stroke-width:1.0;"/><text fill="#000000" font-family="sans-serif" font-size="14" lengthAdjust="spacing" textLength="471" x="1141.5" y="590.9707">processPayment(ticket : Ticket, paymentMachine : PaymentMachine) : void</text></g><!--class Main--><g id="elem_Main"><rect codeLine="61" fill="#F1F1F1" height="66.6211" id="Main" rx="2.5" ry="2.5" style="stroke:#181818;stroke-width:0.5;" width="189" x="815.5" y="7"/><ellipse cx="890.75" cy="23" fill="#ADD1B2" rx="11" ry="11" style="stroke:#181818;stroke-width:1.0;"/><path d="M893.5156,18.875 Q893.6719,18.6563 893.8594,18.5469 Q894.0469,18.4375 894.2656,18.4375 Q894.6406,18.4375 894.875,18.7031 Q895.1094,18.9531 895.1094,19.5625 L895.1094,21.0156 Q895.1094,21.625 894.875,21.8906 Q894.6406,22.1563 894.2656,22.1563 Q893.9219,22.1563 893.7188,21.9531 Q893.5156,21.7656 893.4063,21.25 Q893.3594,20.8906 893.1719,20.7031 Q892.8438,20.3281 892.2344,20.1094 Q891.625,19.8906 891,19.8906 Q890.2344,19.8906 889.5938,20.2188 Q888.9688,20.5469 888.4688,21.2969 Q887.9844,22.0469 887.9844,23.0781 L887.9844,24.1719 Q887.9844,25.4063 888.875,26.2344 Q889.7656,27.0469 891.3594,27.0469 Q892.2969,27.0469 892.9531,26.7969 Q893.3438,26.6406 893.7656,26.2031 Q894.0313,25.9375 894.1719,25.8594 Q894.3281,25.7813 894.5313,25.7813 Q894.8594,25.7813 895.1094,26.0469 Q895.375,26.2969 895.375,26.6406 Q895.375,26.9844 895.0313,27.3906 Q894.5313,27.9688 893.7344,28.2969 Q892.6563,28.75 891.3594,28.75 Q889.8438,28.75 888.6406,28.125 Q887.6563,27.625 886.9688,26.5625 Q886.2813,25.4844 886.2813,24.2031 L886.2813,23.0469 Q886.2813,21.7188 886.8906,20.5781 Q887.5156,19.4219 888.6094,18.8125 Q889.7031,18.1875 890.9375,18.1875 Q891.6719,18.1875 892.3125,18.3594 Q892.9688,18.5156 893.5156,18.875 Z " fill="#000000"/><text fill="#000000" font-family="sans-serif" font-size="14" lengthAdjust="spacing" textLength="30" x="911.25" y="28.7969">Main</text><line style="stroke:#181818;stroke-width:0.5;" x1="816.5" x2="1003.5" y1="39" y2="39"/><line style="stroke:#181818;stroke-width:0.5;" x1="816.5" x2="1003.5" y1="47" y2="47"/><ellipse cx="826.5" cy="61.8105" fill="#84BE84" rx="3" ry="3" style="stroke:#038048;stroke-width:1.0;"/><text fill="#000000" font-family="sans-serif" font-size="14" lengthAdjust="spacing" textLength="163" x="835.5" y="66.1074">main(args : String[]) : void</text></g><!--class Controller--><g id="elem_Controller"><rect codeLine="65" fill="#F1F1F1" height="215.5898" id="Controller" rx="2.5" ry="2.5" style="stroke:#181818;stroke-width:0.5;" width="253" x="783.5" y="153"/><ellipse cx="874.75" cy="169" fill="#ADD1B2" rx="11" ry="11" style="stroke:#181818;stroke-width:1.0;"/><path d="M877.5156,164.875 Q877.6719,164.6563 877.8594,164.5469 Q878.0469,164.4375 878.2656,164.4375 Q878.6406,164.4375 878.875,164.7031 Q879.1094,164.9531 879.1094,165.5625 L879.1094,167.0156 Q879.1094,167.625 878.875,167.8906 Q878.6406,168.1563 878.2656,168.1563 Q877.9219,168.1563 877.7188,167.9531 Q877.5156,167.7656 877.4063,167.25 Q877.3594,166.8906 877.1719,166.7031 Q876.8438,166.3281 876.2344,166.1094 Q875.625,165.8906 875,165.8906 Q874.2344,165.8906 873.5938,166.2188 Q872.9688,166.5469 872.4688,167.2969 Q871.9844,168.0469 871.9844,169.0781 L871.9844,170.1719 Q871.9844,171.4063 872.875,172.2344 Q873.7656,173.0469 875.3594,173.0469 Q876.2969,173.0469 876.9531,172.7969 Q877.3438,172.6406 877.7656,172.2031 Q878.0313,171.9375 878.1719,171.8594 Q878.3281,171.7813 878.5313,171.7813 Q878.8594,171.7813 879.1094,172.0469 Q879.375,172.2969 879.375,172.6406 Q879.375,172.9844 879.0313,173.3906 Q878.5313,173.9688 877.7344,174.2969 Q876.6563,174.75 875.3594,174.75 Q873.8438,174.75 872.6406,174.125 Q871.6563,173.625 870.9688,172.5625 Q870.2813,171.4844 870.2813,170.2031 L870.2813,169.0469 Q870.2813,167.7188 870.8906,166.5781 Q871.5156,165.4219 872.6094,164.8125 Q873.7031,164.1875 874.9375,164.1875 Q875.6719,164.1875 876.3125,164.3594 Q876.9688,164.5156 877.5156,164.875 Z " fill="#000000"/><text fill="#000000" font-family="sans-serif" font-size="14" lengthAdjust="spacing" textLength="62" x="895.25" y="174.7969">Controller</text><line style="stroke:#181818;stroke-width:0.5;" x1="784.5" x2="1035.5" y1="185" y2="185"/><rect fill="none" height="6" style="stroke:#C82930;stroke-width:1.0;" width="6" x="791.5" y="196.8105"/><text fill="#000000" font-family="sans-serif" font-size="14" lengthAdjust="spacing" textLength="107" x="803.5" y="204.1074">ui : UserInterface</text><rect fill="none" height="6" style="stroke:#C82930;stroke-width:1.0;" width="6" x="791.5" y="215.4316"/><text fill="#000000" font-family="sans-serif" font-size="14" lengthAdjust="spacing" textLength="153" x="803.5" y="222.7285">garage : ParkingGarage</text><rect fill="none" height="6" style="stroke:#C82930;stroke-width:1.0;" width="6" x="791.5" y="234.0527"/><text fill="#000000" font-family="sans-serif" font-size="14" lengthAdjust="spacing" textLength="227" x="803.5" y="241.3496">paymentMachine : PaymentMachine</text><line style="stroke:#181818;stroke-width:0.5;" x1="784.5" x2="1035.5" y1="248.8633" y2="248.8633"/><ellipse cx="794.5" cy="263.6738" fill="#84BE84" rx="3" ry="3" style="stroke:#038048;stroke-width:1.0;"/><text fill="#000000" font-family="sans-serif" font-size="14" lengthAdjust="spacing" textLength="69" x="803.5" y="267.9707">run() : void</text><rect fill="#F24D5C" height="6" style="stroke:#C82930;stroke-width:1.0;" width="6" x="791.5" y="279.2949"/><text fill="#000000" font-family="sans-serif" font-size="14" lengthAdjust="spacing" textLength="148" x="803.5" y="286.5918">handleEntrance() : void</text><rect fill="#F24D5C" height="6" style="stroke:#C82930;stroke-width:1.0;" width="6" x="791.5" y="297.916"/><text fill="#000000" font-family="sans-serif" font-size="14" lengthAdjust="spacing" textLength="146" x="803.5" y="305.2129">handlePayment() : void</text><rect fill="#F24D5C" height="6" style="stroke:#C82930;stroke-width:1.0;" width="6" x="791.5" y="316.5371"/><text fill="#000000" font-family="sans-serif" font-size="14" lengthAdjust="spacing" textLength="113" x="803.5" y="323.834">handleExit() : void</text><rect fill="#F24D5C" height="6" style="stroke:#C82930;stroke-width:1.0;" width="6" x="791.5" y="335.1582"/><text fill="#000000" font-family="sans-serif" font-size="14" lengthAdjust="spacing" textLength="125" x="803.5" y="342.4551">listAllTickets() : void</text><rect fill="#F24D5C" height="6" style="stroke:#C82930;stroke-width:1.0;" width="6" x="791.5" y="353.7793"/><text fill="#000000" font-family="sans-serif" font-size="14" lengthAdjust="spacing" textLength="114" x="803.5" y="361.0762">getMenu() : String</text></g><!--reverse link Gate to EntranceGate--><g id="link_Gate_EntranceGate"><path d="M108.2373,835.059 C89.1773,885.049 72.01,950.2 65.88,989.95 " fill="none" id="Gate-backto-EntranceGate" style="stroke:#181818;stroke-width:1.0;"/><polygon fill="none" points="114.65,818.24,102.631,832.9214,113.8436,837.1965,114.65,818.24" style="stroke:#181818;stroke-width:1.0;"/></g><!--link EntranceGate to Gate--><g id="link_EntranceGate_Gate"><path codeLine="89" d="M82.24,989.95 C99.96,950.2 121.3109,885.8604 131.6009,835.8704 " fill="none" id="EntranceGate-to-Gate" style="stroke:#181818;stroke-width:1.0;stroke-dasharray:7.0,7.0;"/><polygon fill="none" points="135.23,818.24,125.7242,834.6607,137.4777,837.0801,135.23,818.24" style="stroke:#181818;stroke-width:1.0;"/></g><!--reverse link Gate to ExitGate--><g id="link_Gate_ExitGate"><path d="M142.5781,835.8828 C152.6881,885.8728 173.37,950.2 190.42,989.95 " fill="none" id="Gate-backto-ExitGate" style="stroke:#181818;stroke-width:1.0;"/><polygon fill="none" points="139.01,818.24,136.6972,837.0722,148.459,834.6934,139.01,818.24" style="stroke:#181818;stroke-width:1.0;"/></g><!--link ExitGate to Gate--><g id="link_ExitGate_Gate"><path codeLine="88" d="M206.79,989.95 C201.31,950.2 184.8327,885.068 165.9427,835.078 " fill="none" id="ExitGate-to-Gate" style="stroke:#181818;stroke-width:1.0;stroke-dasharray:7.0,7.0;"/><polygon fill="none" points="159.58,818.24,160.33,837.1988,171.5553,832.9571,159.58,818.24" style="stroke:#181818;stroke-width:1.0;"/></g><!--link Main to Controller--><g id="link_Main_Controller"><path codeLine="78" d="M910,74.21 C910,95.28 910,117.99 910,146.53 " fill="none" id="Main-to-Controller" style="stroke:#181818;stroke-width:1.0;"/><polygon fill="#181818" points="910,152.53,914,143.53,910,147.53,906,143.53,910,152.53" style="stroke:#181818;stroke-width:1.0;"/><text fill="#000000" font-family="sans-serif" font-size="13" lengthAdjust="spacing" textLength="54" x="911" y="119.0283">initializes</text></g><!--link Controller to UserInterface--><g id="link_Controller_UserInterface"><path codeLine="79" d="M1036.61,337.42 C1109.88,381.06 1195.6755,432.159 1264.0555,472.899 " fill="none" id="Controller-to-UserInterface" style="stroke:#181818;stroke-width:1.0;"/><polygon fill="#181818" points="1269.21,475.97,1263.5256,467.9272,1264.9146,473.4108,1259.4309,474.7998,1269.21,475.97" style="stroke:#181818;stroke-width:1.0;"/><text fill="#000000" font-family="sans-serif" font-size="13" lengthAdjust="spacing" textLength="67" x="1168" y="414.0283">coordinates</text></g><!--link Controller to ParkingGarage--><g id="link_Controller_ParkingGarage"><path codeLine="80" d="M783.4,344.39 C732.67,377.41 679.1886,412.2168 627.7686,445.6868 " fill="none" id="Controller-to-ParkingGarage" style="stroke:#181818;stroke-width:1.0;"/><polygon fill="#181818" points="622.74,448.96,632.4649,447.4026,626.9305,446.2324,628.1007,440.6979,622.74,448.96" style="stroke:#181818;stroke-width:1.0;"/><text fill="#000000" font-family="sans-serif" font-size="13" lengthAdjust="spacing" textLength="53" x="700" y="414.0283">manages</text></g><!--link Controller to PaymentMachine--><g id="link_Controller_PaymentMachine"><path codeLine="81" d="M910,369.11 C910,417.14 910,464.33 910,497.46 " fill="none" id="Controller-to-PaymentMachine" style="stroke:#181818;stroke-width:1.0;"/><polygon fill="#181818" points="910,503.46,914,494.46,910,498.46,906,494.46,910,503.46" style="stroke:#181818;stroke-width:1.0;"/><text fill="#000000" font-family="sans-serif" font-size="13" lengthAdjust="spacing" textLength="60" x="911" y="414.0283">processes</text></g><!--link ParkingGarage to Display--><g id="link_ParkingGarage_Display"><path codeLine="82" d="M522.14,626.06 C535.88,662.57 549.057,697.5844 560.157,727.0844 " fill="none" id="ParkingGarage-to-Display" style="stroke:#181818;stroke-width:1.0;"/><polygon fill="#181818" points="562.27,732.7,562.8443,722.8679,560.5092,728.0203,555.3568,725.6852,562.27,732.7" style="stroke:#181818;stroke-width:1.0;"/><text fill="#000000" font-family="sans-serif" font-size="13" lengthAdjust="spacing" textLength="46" x="539" y="671.0283">updates</text></g><!--reverse link ParkingGarage to ParkingSpot--><g id="link_ParkingGarage_ParkingSpot"><path codeLine="83" d="M420.6955,635.9027 C402.5555,661.9127 389.82,680.16 372.61,704.83 " fill="none" id="ParkingGarage-backto-ParkingSpot" style="stroke:#181818;stroke-width:1.0;"/><polygon fill="#181818" points="427.56,626.06,420.8468,628.6932,420.6955,635.9027,427.4086,633.2695,427.56,626.06" style="stroke:#181818;stroke-width:1.0;"/><text fill="#000000" font-family="sans-serif" font-size="13" lengthAdjust="spacing" textLength="49" x="408" y="671.0283">contains</text><text fill="#000000" font-family="sans-serif" font-size="13" lengthAdjust="spacing" textLength="20" x="356.5917" y="693.7035">0..*</text></g><!--reverse link ParkingGarage to Gate--><g id="link_ParkingGarage_Gate"><path codeLine="84" d="M345.1993,623.9063 C302.2093,650.6363 265.04,674.97 223,705 C210.97,713.59 198.4,723.3 186.7,732.68 " fill="none" id="ParkingGarage-backto-Gate" style="stroke:#181818;stroke-width:1.0;"/><polygon fill="#181818" points="355.39,617.57,348.1825,617.3412,345.1993,623.9063,352.4067,624.1351,355.39,617.57" style="stroke:#181818;stroke-width:1.0;"/><text fill="#000000" font-family="sans-serif" font-size="13" lengthAdjust="spacing" textLength="21" x="296" y="671.0283">has</text><text fill="#000000" font-family="sans-serif" font-size="13" lengthAdjust="spacing" textLength="22" x="170.6259" y="721.8537">1..2</text></g><!--reverse link ParkingSpot to Ticket--><g id="link_ParkingSpot_Ticket"><path codeLine="85" d="M355.5937,857.2706 C362.1837,873.4206 364.87,879.35 372,895 C376.43,904.72 381.23,914.81 386.12,924.8 " fill="none" id="ParkingSpot-backto-Ticket" style="stroke:#181818;stroke-width:1.0;"/><polygon fill="none" points="351.06,846.16,349.6233,853.2265,355.5937,857.2706,357.0304,850.2041,351.06,846.16" style="stroke:#181818;stroke-width:1.0;"/><text fill="#000000" font-family="sans-serif" font-size="13" lengthAdjust="spacing" textLength="52" x="373" y="891.0283">assigned</text><text fill="#000000" font-family="sans-serif" font-size="13" lengthAdjust="spacing" textLength="22" x="359.4096" y="913.7352">0..1</text></g><!--link PaymentMachine to Payment--><g id="link_PaymentMachine_Payment"><path codeLine="86" d="M915.28,570.88 C922.07,613.15 932.918,680.646 940.338,726.816 " fill="none" id="PaymentMachine-to-Payment" style="stroke:#181818;stroke-width:1.0;"/><polygon fill="#181818" points="941.29,732.74,943.8113,723.2193,940.4966,727.8033,935.9126,724.4887,941.29,732.74" style="stroke:#181818;stroke-width:1.0;"/><text fill="#000000" font-family="sans-serif" font-size="13" lengthAdjust="spacing" textLength="28" x="932" y="671.0283">uses</text></g><!--link Payment to Ticket--><g id="link_Payment_Ticket"><path codeLine="87" d="M857.23,818.1 C774.53,856.01 656.9944,909.8802 564.5244,952.2602 " fill="none" id="Payment-to-Ticket" style="stroke:#181818;stroke-width:1.0;"/><polygon fill="#181818" points="559.07,954.76,568.9182,954.6466,563.6154,952.6768,565.5851,947.374,559.07,954.76" style="stroke:#181818;stroke-width:1.0;"/><text fill="#000000" font-family="sans-serif" font-size="13" lengthAdjust="spacing" textLength="60" x="721" y="891.0283">processes</text></g><!--SRC=[dLLTRzCm57tFhx3wGhRIYl4OeKfZWwaIXKahJuW7rxdBh3bsP3lJoiT_vpfndDWDGs8ldUyvlZxtC_HWhARC4YQeCUI6MY0_Cu9_Iw8QaCwGdv62F2bUUZiJoa0C_Cwoti47YUuaws02pnPa6RoEf6TkNoJSKlt8PNL3DQq6FIjYbQNYhb7MuBDSMc-cJvGBUX2GGajIWRsCq4xnY3VupXNLdNNFsICC0A121zZE6537EoWbW4fF5DpOIo5wk7V_2KtlUiF6i-wvB7lB- -Esz5wt9PBlhCP09- -dEN2oGmOC7ZwtzG5qb05klZ3MDXpA4ttA0KVd9AtYlGQOitCJKfPFumt2Ug5ZLT9WWYZJmfxNWC0rrjUR6yfFLMATFWBahDKQf9rSSW9ArQAMKB5ZJclLIXkGqw9mSuklv6Tpx-ozt0xrWYSvFzOe8CIMl3Heq8g1CPwSziXhyeA-zAKTPGzSZYE7uVLU_i_hDJUDeCTH_zz7esrAp6yo7MQaJKSRZw3lAGForO3UXbDGZLcqEqm9JcjUzxzHRq_Q2qkmbKrhSynYtTY8DkcV9IdxM1A5JRGPYdXJ94_zgqvDN8CYAShfSjjHBaFGDHvogYiJX7_xVdhbIk52L4BWn0v5QJcoeaHwe9eDAipDYsAzADtAU9vNv87AKi2mb-VH8KNpLt4NfiZCsfkWMECTo3OPiLVaqXZ5EBLSIPDroLojDjCKkSxZbbF1Vu399e3ZnRrN4AQKBhd4BZwXtYPTKbE9_ypGafpwZa5cxC6HXzag_EYadFFLYYpUhDVdYsXrEvtIOgop_8lr-ksY__mLcEx0wQugx_5YCUpSWc1FyKf2cINQ9-4uXNq8_T51uVuOOVW8hzU_Dfs4BFfuZ-O_]--></g></svg>